# xmcd
#
# Track frame offsets: 
#        150
#        6005
#        18651
#        33510
#        47212
#        61592
#        77983
#        100767
#        116985
#        134494
#        154351
#        171776
#        189423
#        200453
#
# Disc length: 2942 seconds
#
# Revision: 0
# Processed by: cddbd v1.5PL3 Copyright (c) Steve Scherf et al.
# Submitted via: ExactAudioCopy v0.90b4
#
DISCID=bd0b7c0e
DTITLE=Mark Rashid - Song of the Prairie
DYEAR=2003
DGENRE=Country
TTITLE0=Prairie Sunrise
TTITLE1=Yellow Bird
TTITLE2=High Back Saddle
TTITLE3=Watch 'em Fall
TTITLE4=Pearly White of Snow
TTITLE5=Still Stand Tall
TTITLE6=Points
TTITLE7=Cowboy Christmas
TTITLE8=Love That Will Last
TTITLE9=Song of the Prairie
TTITLE10=First to Go
TTITLE11=They Don't Make 'em Like That Anymore
TTITLE12=Prairie Sunset
TTITLE13=Eddie's Banjo Song
EXTD=
EXTT0=
EXTT1=
EXTT2=
EXTT3=
EXTT4=
EXTT5=
EXTT6=
EXTT7=
EXTT8=
EXTT9=
EXTT10=
EXTT11=
EXTT12=
EXTT13=
PLAYORDER=
